<svg id="logo-3wa-ecole-code-numerique" xmlns="http://www.w3.org/2000/svg" xmlns:xlink="http://www.w3.org/1999/xlink" width="73.691" height="50.221" viewBox="0 0 73.691 50.221">
  <defs>
    <clipPath id="clip-path">
      <rect id="Rectangle_1803" data-name="Rectangle 1803" width="73.691" height="50.221" fill="#fff"/>
    </clipPath>
  </defs>
  <path id="Tracé_2423" data-name="Tracé 2423" d="M4.551,170.582h.057l1.123,2.6H3.4Zm-.1-4.025L0,176.114H2.1l.654-1.48h3.6l.64,1.48H9.144l-4.38-9.557Z" transform="translate(0 -126.064)" fill="#fff"/>
  <g id="Groupe_5574" data-name="Groupe 5574">
    <g id="Groupe_5573" data-name="Groupe 5573" clip-path="url(#clip-path)">
      <path id="Tracé_2424" data-name="Tracé 2424" d="M52.046,175.685a6.791,6.791,0,0,1-2.731.555c-3.242,0-5.021-2.091-5.021-4.822a4.84,4.84,0,0,1,5.077-4.921,7.133,7.133,0,0,1,2.375.385v1.778a5.057,5.057,0,0,0-2.076-.442,3.05,3.05,0,0,0-3.229,3.2,2.873,2.873,0,0,0,3.115,3.1,5.644,5.644,0,0,0,2.475-.626Z" transform="translate(-33.526 -126.019)" fill="#fff"/>
      <path id="Tracé_2425" data-name="Tracé 2425" d="M90.858,174.635h-3.6l-.654,1.48H84.5l4.451-9.557h.313l4.38,9.557H91.5Zm-2.958-1.45h2.332l-1.123-2.6h-.057Z" transform="translate(-63.957 -126.064)" fill="#fff"/>
      <path id="Tracé_2426" data-name="Tracé 2426" d="M132.426,176.646V167.26h3.442c3.186,0,4.864,2.02,4.864,4.664a4.408,4.408,0,0,1-4.664,4.722Zm3.5-7.751h-1.394v6.116h1.479c1.564,0,2.646-1.024,2.646-3.086,0-1.792-.882-3.03-2.731-3.03" transform="translate(-100.231 -126.596)" fill="#fff"/>
      <path id="Tracé_2427" data-name="Tracé 2427" d="M185.69,176.646h-6.627V167.26h6.357V168.9h-4.238v2.077h3.8v1.578h-3.8v2.46h4.508Z" transform="translate(-135.53 -126.596)" fill="#fff"/>
      <path id="Tracé_2428" data-name="Tracé 2428" d="M222.9,174.425l-2.616-2.859a.052.052,0,0,1-.043.015v4.579h-2.033v-9.542h.313c1.508,1.777,3.029,3.484,4.536,5.247l4.523-5.247h.3v9.542h-2.048v-4.579a.083.083,0,0,0-.057-.015l-2.56,2.859Z" transform="translate(-165.161 -126.11)" fill="#fff"/>
      <path id="Tracé_2429" data-name="Tracé 2429" d="M272.613,171.214l1.849-3.953h2.261l-3.129,5.674v3.712h-2.118v-3.712l-3.229-5.674h2.289l2.02,3.953Z" transform="translate(-203.032 -126.597)" fill="#fff"/>
      <path id="Tracé_2430" data-name="Tracé 2430" d="M14.6,10.434,23.071.026H1.455V5.318h10.32L6,12.154v3.528A8.464,8.464,0,0,1,9.7,14.8a5.766,5.766,0,0,1,6.086,5.645,5.728,5.728,0,0,1-5.777,5.6,7.143,7.143,0,0,1-5.734-3.087L0,26.532a13.661,13.661,0,0,0,10.232,4.807c6.395,0,11.511-4.366,11.511-10.894A10.649,10.649,0,0,0,14.6,10.434" transform="translate(0 -0.02)" fill="#fff"/>
      <path id="Tracé_2431" data-name="Tracé 2431" d="M199.734,18.106l-4.04-7.785-4.04,7.785,4.04,7.785,2.8,5.388,4.04,7.785,4.04-7.785-4.04-7.784Z" transform="translate(-145.06 -7.812)" fill="#fff"/>
      <path id="Tracé_2432" data-name="Tracé 2432" d="M121.523,0h-8.08l12.178,23.466,4.04,7.784,4.04-7.784-4.04-7.785Z" transform="translate(-85.863 0)" fill="#fff"/>
      <path id="Tracé_2433" data-name="Tracé 2433" d="M253.232,0,247.89,10.294l4.04,7.784L261.312,0Z" transform="translate(-187.624 0)" fill="#fff"/>
    </g>
  </g>
</svg>
